<?xml version="1.0" standalone="no"?>
<!DOCTYPE svg PUBLIC "-//W3C//DTD SVG 20010904//EN"
 "http://www.w3.org/TR/2001/REC-SVG-20010904/DTD/svg10.dtd">
<svg version="1.0" xmlns="http://www.w3.org/2000/svg"
 width="630.000000pt" height="630.000000pt" viewBox="0 0 630.000000 630.000000"
 preserveAspectRatio="xMidYMid meet">
<metadata>
Created by potrace 1.14, written by Peter Selinger 2001-2017
</metadata>
<g transform="translate(0.000000,630.000000) scale(0.100000,-0.100000)"
fill="#000000" stroke="none">
<path d="M0 3145 l0 -3125 3150 0 3150 0 0 3125 0 3125 -3150 0 -3150 0 0
-3125z m4445 595 c100 -27 95 -21 95 -127 0 -72 -3 -94 -12 -90 -150 66 -229
82 -361 74 -133 -9 -228 -61 -263 -144 -18 -43 -18 -115 1 -161 31 -72 75
-105 280 -211 239 -124 333 -199 387 -309 20 -41 23 -62 23 -157 0 -97 -3
-116 -25 -160 -73 -149 -240 -228 -485 -228 -119 0 -270 26 -340 59 l-40 19
-3 98 c-3 105 0 111 46 78 66 -46 206 -89 318 -98 148 -11 256 23 318 100 27
34 31 48 34 113 4 65 1 79 -22 118 -38 65 -91 104 -274 200 -260 137 -327 189
-380 291 -34 67 -43 198 -17 274 43 131 168 224 355 266 74 17 297 14 365 -5z
m-2574 -220 c66 -239 180 -645 216 -775 14 -49 36 -130 48 -180 12 -49 25 -83
28 -75 2 8 55 191 116 405 62 215 140 489 175 610 l64 220 86 3 c47 1 86 1 86
-2 0 -2 30 -112 66 -243 36 -131 83 -301 104 -378 21 -77 63 -232 94 -344 31
-113 59 -222 62 -243 4 -21 9 -38 13 -38 3 0 25 76 48 168 45 174 111 427 143
547 11 39 47 175 81 303 l62 232 94 0 c85 0 94 -2 89 -17 -3 -10 -48 -171
-101 -358 -188 -665 -277 -981 -295 -1040 l-18 -60 -102 0 -102 0 -18 60 c-10
33 -50 173 -89 310 -38 138 -100 356 -136 485 -37 129 -72 264 -79 300 l-12
65 -7 -45 c-7 -41 -133 -497 -273 -983 -30 -103 -54 -190 -54 -193 0 -2 -46
-3 -102 -2 l-103 3 -66 225 c-54 180 -326 1105 -360 1223 l-8 28 97 -3 97 -3
56 -205z"/>
</g>
</svg>
