<?xml version="1.0" standalone="no"?>
<!DOCTYPE svg PUBLIC "-//W3C//DTD SVG 20010904//EN"
 "http://www.w3.org/TR/2001/REC-SVG-20010904/DTD/svg10.dtd">
<svg version="1.0" xmlns="http://www.w3.org/2000/svg"
 width="629.000000pt" height="629.000000pt" viewBox="0 0 629.000000 629.000000"
 preserveAspectRatio="xMidYMid meet">
<metadata>
Created by potrace 1.14, written by Peter Selinger 2001-2017
</metadata>
<g transform="translate(0.000000,629.000000) scale(0.100000,-0.100000)"
fill="#000000" stroke="none">
<path d="M0 3145 l0 -3135 3145 0 3145 0 0 3135 0 3135 -3145 0 -3145 0 0
-3135z m4410 631 c41 -8 87 -19 103 -25 27 -10 27 -11 27 -102 0 -69 -3 -90
-12 -86 -142 63 -238 83 -358 74 -175 -12 -280 -98 -280 -228 0 -68 30 -129
84 -174 24 -19 117 -73 207 -121 250 -131 344 -207 396 -321 23 -49 25 -64 21
-156 -3 -90 -7 -108 -33 -155 -36 -67 -101 -127 -171 -159 -69 -31 -220 -63
-304 -63 -114 0 -311 41 -367 76 -21 13 -23 22 -23 104 0 55 4 90 10 90 6 0
27 -10 48 -23 51 -32 111 -55 206 -77 143 -35 286 -20 371 38 87 60 112 189
55 288 -38 66 -87 102 -291 209 -202 106 -283 164 -331 236 -47 73 -58 109
-58 195 0 239 204 391 525 393 55 0 134 -6 175 -13z m-2569 -116 c15 -52 48
-171 74 -265 26 -93 78 -280 116 -415 38 -135 81 -293 96 -352 14 -60 30 -108
35 -108 4 0 8 8 8 17 0 9 37 143 81 297 45 155 123 425 174 601 l92 320 86 3
86 3 11 -43 c6 -24 22 -81 35 -128 107 -382 275 -1003 281 -1037 8 -55 20 -55
28 -1 4 23 52 211 107 418 56 206 109 407 119 445 10 39 30 115 45 170 14 55
31 117 36 138 l10 37 95 0 c84 0 95 -2 90 -16 -3 -9 -22 -73 -42 -143 -38
-136 -170 -602 -293 -1036 l-77 -270 -104 0 -104 0 -57 200 c-198 697 -243
859 -258 930 l-18 80 -7 -45 c-5 -32 -269 -978 -322 -1152 -5 -16 -19 -18
-108 -18 l-102 0 -32 113 c-18 61 -55 189 -83 282 -27 94 -68 231 -89 305 -22
74 -82 278 -133 453 l-94 318 95 -3 96 -3 27 -95z"/>
</g>
</svg>
